<svg width="124" height="109" viewBox="0 0 124 109" fill="none" xmlns="http://www.w3.org/2000/svg">
<g clip-path="url(#clip0_4518_58)">
<g opacity="0.5">
<path d="M61.9975 107.253C61.5479 107.253 61.1824 106.888 61.1824 106.438V1.62034C61.1824 1.17079 61.5479 0.805229 61.9975 0.805229C62.447 0.805229 62.8126 1.17079 62.8126 1.62034V106.443C62.8076 106.893 62.4421 107.253 61.9975 107.253Z" fill="white"/>
</g>
<g opacity="0.5">
<path d="M122.36 29.7588C122.33 29.7588 122.296 29.7588 122.256 29.7539L61.8938 22.1462L1.72901 29.7391C1.25971 29.8082 0.874384 29.4772 0.820044 29.0326C0.760763 28.588 1.08187 28.178 1.52647 28.1237L61.8938 20.5308L122.464 28.1385C122.908 28.1928 123.224 28.6028 123.17 29.0475C123.116 29.4575 122.765 29.7588 122.36 29.7588Z" fill="white"/>
</g>
<path d="M61.9975 108.068C61.4936 108.068 61.0194 107.836 60.7131 107.441L0.345766 29.9416C-0.207519 29.2352 -0.0790779 28.2126 0.627348 27.6593C1.33377 27.111 2.3613 27.2345 2.91459 27.9458L61.9975 103.795L121.08 27.9458C121.634 27.2345 122.651 27.111 123.368 27.6593C124.074 28.2126 124.202 29.2352 123.649 29.9416L63.2819 107.441C62.9707 107.836 62.4964 108.068 61.9975 108.068Z" fill="white"/>
<path d="M93.2877 45.7448H30.7122C30.4503 45.7448 30.1935 45.6806 29.9613 45.562L0.874307 30.3714C0.469223 30.159 0.172821 29.7934 0.0591996 29.3488C-0.0593614 28.9091 0.00979919 28.4398 0.251861 28.0594L12.2068 9.15884C12.4538 8.76858 12.8539 8.50181 13.3035 8.42277L61.706 0.0247021C61.8888 -0.00493814 62.0864 -0.00493814 62.2642 0.0247021L110.696 8.42277C111.151 8.50181 111.546 8.76858 111.798 9.15884L123.753 28.0594C123.995 28.4448 124.069 28.9141 123.946 29.3488C123.827 29.7885 123.531 30.159 123.13 30.3714L94.0484 45.5571C93.8113 45.6806 93.5544 45.7448 93.2877 45.7448ZM31.1172 42.4893H92.8925L120.058 28.3064L109.437 11.5054L61.9876 3.28019L14.573 11.5054L3.94701 28.3064L31.1172 42.4893Z" fill="white"/>
<path d="M89.3356 22.9663H34.6642C34.3974 22.9663 34.1307 22.8971 33.8936 22.7736L12.8144 11.4609C12.024 11.0361 11.7226 10.048 12.1524 9.25764C12.5773 8.46724 13.5653 8.17083 14.3557 8.59568L35.0742 19.7108H88.9256L109.649 8.59568C110.44 8.17083 111.428 8.46724 111.852 9.25764C112.277 10.048 111.981 11.0361 111.19 11.4609L90.1063 22.7687C89.8692 22.8971 89.6024 22.9663 89.3356 22.9663Z" fill="white"/>
<path d="M61.9974 108.068C61.3799 108.068 60.8167 107.723 60.5401 107.169L29.2548 44.8358C29.1017 44.5246 29.0473 44.1739 29.1066 43.8281L33.0636 21.0594C33.2167 20.1702 34.0763 19.5823 34.9457 19.7355C35.83 19.8886 36.4228 20.7334 36.2697 21.6176L32.4065 43.8577L61.9974 102.812L91.5882 43.8528L87.74 21.6127C87.5819 20.7235 88.1796 19.8837 89.0639 19.7305C89.9235 19.5725 90.788 20.1702 90.9461 21.0545L94.8882 43.8231C94.9475 44.1689 94.8931 44.5197 94.74 44.8309L63.4547 107.164C63.1731 107.723 62.61 108.068 61.9974 108.068Z" fill="white"/>
</g>
<defs>
<clipPath id="clip0_4518_58">
<rect width="124" height="108.068" fill="white"/>
</clipPath>
</defs>
</svg>
