<svg width="25" height="25" viewBox="0 0 25 25" fill="none" xmlns="http://www.w3.org/2000/svg">
<g clip-path="url(#clip0_4413_18)">
<path d="M21.875 6.25H3.125C2.78 6.25 2.5 5.97 2.5 5.625C2.5 5.28 2.78 5 3.125 5H21.875C22.22 5 22.5 5.28 22.5 5.625C22.5 5.97 22.22 6.25 21.875 6.25Z" fill="white"/>
<path d="M16.875 15H3.125C2.78 15 2.5 14.72 2.5 14.375C2.5 14.03 2.78 13.75 3.125 13.75H16.875C17.22 13.75 17.5 14.03 17.5 14.375C17.5 14.72 17.22 15 16.875 15Z" fill="white"/>
<path d="M21.875 23.75H3.125C2.78 23.75 2.5 23.47 2.5 23.125C2.5 22.78 2.78 22.5 3.125 22.5H21.875C22.22 22.5 22.5 22.78 22.5 23.125C22.5 23.47 22.22 23.75 21.875 23.75Z" fill="white"/>
</g>
<defs>
<clipPath id="clip0_4413_18">
<rect width="25" height="25" fill="white"/>
</clipPath>
</defs>
</svg>
