<svg width="64" height="75" viewBox="0 0 64 75" fill="none" xmlns="http://www.w3.org/2000/svg">
<g clip-path="url(#clip0_4436_132)">
<g opacity="0.5">
<path d="M62.8492 56.2508C62.7516 56.2508 62.6505 56.2259 62.5633 56.1726L31.7123 38.0067C31.4368 37.8467 31.3427 37.4875 31.5031 37.2065C31.6635 36.9256 32.0157 36.8296 32.2877 36.9932L63.1387 55.159C63.4107 55.3191 63.5048 55.6783 63.3479 55.9592C63.2398 56.1441 63.048 56.2508 62.8492 56.2508Z" fill="#707070"/>
</g>
<g opacity="0.5">
<path d="M1.14738 56.2509C0.948611 56.2509 0.756817 56.1442 0.648715 55.9593C0.491792 55.6783 0.585946 55.3191 0.857945 55.1591L31.423 37.1639V1.17005C31.423 0.846422 31.681 0.583252 31.9984 0.583252C32.3157 0.583252 32.5737 0.846422 32.5737 1.17005V37.4982C32.5737 37.7081 32.4622 37.9001 32.2878 38.0032L1.43681 56.1727C1.34615 56.226 1.24851 56.2509 1.14738 56.2509Z" fill="#707070"/>
</g>
<path d="M31.9983 74.9999C31.7995 74.9999 31.6007 74.9466 31.4229 74.8434L0.575383 56.6811C0.219692 56.4713 0 56.0837 0 55.664V19.3358C0 18.9162 0.219692 18.5321 0.575383 18.3223L31.4264 0.156392C31.7821 -0.0534328 32.2214 -0.0534328 32.5736 0.156392L63.4246 18.3223C63.7803 18.5321 64 18.9197 64 19.3358V55.664C64 56.0837 63.7803 56.4677 63.4246 56.6776L32.5736 74.8434C32.3958 74.9501 32.197 74.9999 31.9983 74.9999ZM2.29804 54.9883L32.0017 72.4785L61.7054 54.9883V20.0115L31.9983 2.52137L2.29804 20.0115V54.9883Z" fill="#707070"/>
<path d="M31.9984 38.6718C31.8031 38.6718 31.6043 38.622 31.423 38.5153L0.575492 20.3495C0.0245198 20.0258 -0.163787 19.311 0.157032 18.7491C0.474365 18.1872 1.17877 18.0023 1.72626 18.3188L32.5772 36.4847C33.1282 36.8083 33.3165 37.5231 32.9957 38.085C32.783 38.462 32.3959 38.6718 31.9984 38.6718Z" fill="#707070"/>
<path d="M31.9984 74.9999C31.3637 74.9999 30.8511 74.4771 30.8511 73.8299V37.5017C30.8511 37.082 31.0708 36.6979 31.4265 36.4881L62.2774 18.3222C62.8249 17.9986 63.5293 18.1871 63.8467 18.7526C64.164 19.3145 63.9757 20.0293 63.4282 20.3529L33.1526 38.1774V73.8299C33.1491 74.4771 32.633 74.9999 31.9984 74.9999Z" fill="#707070"/>
</g>
<defs>
<clipPath id="clip0_4436_132">
<rect width="64" height="75" fill="white"/>
</clipPath>
</defs>
</svg>
